<svg width="48" height="48" viewBox="0 0 48 48" fill="none" xmlns="http://www.w3.org/2000/svg">
<path d="M38.4004 0C40.9463 0.000102818 43.3882 1.01127 45.1885 2.81152C46.9887 4.61178 47.9999 7.05367 48 9.59961V38.4004C47.9999 40.9463 46.9887 43.3882 45.1885 45.1885C43.3882 46.9887 40.9463 47.9999 38.4004 48H9.59961C7.05367 47.9999 4.61178 46.9887 2.81152 45.1885C1.01127 43.3882 0.000102817 40.9463 0 38.4004V9.59961C0.000103602 7.05367 1.01127 4.61178 2.81152 2.81152C4.61178 1.01127 7.05367 0.000103601 9.59961 0H38.4004ZM7.99219 13.9912V33.8877C13.8728 33.8877 18.8381 34.5351 21.792 32.9277H21.7676C22.6759 32.4198 23.4199 31.6625 23.9111 30.7451C24.4024 29.8277 24.6207 28.7885 24.54 27.751C24.4592 26.7133 24.0825 25.7201 23.4551 24.8896C22.8276 24.0592 21.9752 23.4257 20.999 23.0645C22.058 22.5439 22.8883 21.6514 23.3311 20.5576C23.7737 19.4638 23.7982 18.2453 23.3994 17.1348C22.6314 14.592 19.776 13.9912 17.376 13.9912H7.99219ZM40.1035 26.8086C40.1035 21.5287 36.6474 17.7845 31.2002 18.9609C29.3208 19.4391 27.7023 20.6324 26.6895 22.2861C25.6766 23.9399 25.3492 25.924 25.7773 27.8154C25.8504 28.568 26.0618 29.3005 26.4004 29.9766C26.9509 30.9902 27.7274 31.8634 28.6699 32.5283C29.6126 33.1933 30.6962 33.632 31.8359 33.8105C32.9754 33.989 34.1406 33.9032 35.2412 33.5586C36.342 33.2138 37.3494 32.62 38.1836 31.8232C38.8072 31.0565 39.2939 30.1877 39.623 29.2559C39.6723 29.0885 39.4805 29.0879 39.4805 29.0879H36.3594C36.288 29.0879 36.167 29.2334 36.167 29.2334C35.7569 29.9296 35.1259 30.4689 34.374 30.7646C33.622 31.0604 32.7921 31.0957 32.0176 30.8652C30.5506 30.6486 29.9033 29.1595 29.6152 27.7441C29.5685 27.4071 29.809 27.2638 30.0723 27.2637H39.6484C39.7099 27.2716 39.7724 27.266 39.8311 27.2461C39.89 27.2261 39.9443 27.1924 39.9883 27.1484C40.0321 27.1045 40.065 27.0509 40.085 26.9922C40.105 26.9333 40.1116 26.8703 40.1035 26.8086ZM15.2686 24.4395C17.1393 24.4395 18.3091 24.277 19.2002 25.3281C19.4439 25.6393 19.6175 25.9995 19.71 26.3838C19.8024 26.7681 19.811 27.1677 19.7354 27.5557C19.6597 27.9437 19.5015 28.3113 19.2715 28.6328C19.0415 28.9541 18.745 29.2222 18.4023 29.4189C17.8988 29.6308 17.3588 29.7418 16.8125 29.7461H12.2754C12.0418 29.7461 11.9482 29.746 11.9482 29.4434V24.7666C11.9482 24.5329 11.9487 24.4395 12.2539 24.4395H15.2686ZM33.0215 21.7754C33.451 21.7666 33.8808 21.8192 34.2969 21.9346H34.2725C34.5816 22.0213 34.8673 22.1766 35.1084 22.3887C35.3494 22.6008 35.5396 22.8646 35.665 23.1602C35.8759 23.5612 35.9968 24.0028 36.0244 24.4551C36.049 24.8167 36.0492 24.8174 35.7617 24.8174H29.9248C29.6124 24.8174 29.6123 24.768 29.6123 24.5049C29.6605 24.1585 29.7616 23.824 29.9072 23.5107C30.0491 23.1739 30.242 22.8655 30.4971 22.624C30.5308 22.5869 30.5642 22.5494 30.5996 22.5137C30.6503 22.4805 30.702 22.449 30.7539 22.418C31.182 22.1099 31.6065 21.9777 32.0615 21.8906C32.1647 21.8669 32.2691 21.8466 32.374 21.8301C32.5888 21.7963 32.8052 21.7781 33.0215 21.7754ZM12.2539 16.9092C14.8701 16.9092 16.9967 16.7544 18.0527 17.377C19.1112 17.9973 19.1556 18.8544 19.1729 19.1104C19.1901 19.3663 19.1824 19.7329 18.6904 20.626C18.1982 21.5194 15.9954 21.5371 14.4053 21.5371H12.3008C12.0423 21.5371 11.9482 21.4435 11.9482 21.1875V17.2373C11.9482 17.0035 11.9487 16.9092 12.2539 16.9092ZM29.209 15.0225C28.9924 15.0225 28.9922 15.0966 28.9922 15.2861V16.8496C28.9922 17.184 28.9921 17.1836 29.3291 17.1836H36.8643C36.992 17.1834 36.9844 17.041 36.9844 17.041V15.0225H29.209Z" fill="#2563EB"/>
</svg>
